# xmcd
#
# Track frame offsets:
#	150
#	28000
#	43538
#	66480
#	89845
#	116134
#	132163
#	153177
#	179689
#	202697
#	230206
#	247277
#
# Disc length: 3604 seconds
#
# Revision: 2
# Processed by: cddbd v1.5.2PL0 Copyright (c) Steve Scherf et al.
# Submitted via: audiograbber 1.83.01
#
DISCID=b30e120c
DTITLE=Bill Evans Trio - Explorations
DYEAR=1961
DGENRE=Jazz
TTITLE0=Israel
TTITLE1=Haunted Heart 
TTITLE2=Beautiful Love (Take 2)
TTITLE3=Elsa 
TTITLE4=Nardis
TTITLE5=How Deep Is The Ocean? 
TTITLE6=I Wish I Knew 
TTITLE7=Sweet And Lovely 
TTITLE8=The Boy Next Door *
TTITLE9=Beautiful Love (Take 1) *
TTITLE10=How Deep Is The Ocean? (Take 2) *
TTITLE11=I Wish I Knew (Take 2) *
EXTD=YEAR: 1961
EXTT0=
EXTT1=
EXTT2=
EXTT3=
EXTT4=
EXTT5=
EXTT6=
EXTT7=
EXTT8=
EXTT9=
EXTT10=
EXTT11=
PLAYORDER=
